<svg width="25" height="24" viewBox="0 0 25 24" fill="none" xmlns="http://www.w3.org/2000/svg">
<path d="M3.75 10.5651C3.75 9.99073 3.75 9.70355 3.82403 9.43908C3.8896 9.20481 3.99737 8.98447 4.14203 8.78889C4.30534 8.56809 4.53202 8.39178 4.98539 8.03916L11.7677 2.76403C12.119 2.49078 12.2947 2.35415 12.4887 2.30163C12.6598 2.25529 12.8402 2.25529 13.0113 2.30163C13.2053 2.35415 13.381 2.49078 13.7323 2.76403L20.5146 8.03916C20.968 8.39178 21.1947 8.56809 21.358 8.78889C21.5026 8.98447 21.6104 9.20481 21.676 9.43908C21.75 9.70355 21.75 9.99073 21.75 10.5651V17.8C21.75 18.9201 21.75 19.4802 21.532 19.908C21.3403 20.2843 21.0343 20.5903 20.658 20.782C20.2302 21 19.6701 21 18.55 21H6.95C5.82989 21 5.26984 21 4.84202 20.782C4.46569 20.5903 4.15973 20.2843 3.96799 19.908C3.75 19.4802 3.75 18.9201 3.75 17.8V10.5651Z" stroke="#101828" stroke-width="2" stroke-linecap="round" stroke-linejoin="round"/>
</svg>
