<svg width="33" height="32" viewBox="0 0 33 32" fill="none" xmlns="http://www.w3.org/2000/svg">
<path d="M27.1667 28C27.1667 26.1392 27.1667 25.2089 26.9371 24.4518C26.42 22.7473 25.0861 21.4134 23.3816 20.8963C22.6245 20.6667 21.6941 20.6667 19.8334 20.6667H13.1667C11.306 20.6667 10.3756 20.6667 9.61852 20.8963C7.91398 21.4134 6.58009 22.7473 6.06303 24.4518C5.83337 25.2089 5.83337 26.1392 5.83337 28M22.5 10C22.5 13.3137 19.8138 16 16.5 16C13.1863 16 10.5 13.3137 10.5 10C10.5 6.68629 13.1863 4 16.5 4C19.8138 4 22.5 6.68629 22.5 10Z" stroke="#475467" stroke-width="2.66667" stroke-linecap="round" stroke-linejoin="round"/>
</svg>
